# xmcd
#
# Track frame offsets:
#  150
#  16000
#  38753
#  54353
#  72588
#  83561
#  97558
#  111218
#  125823
#  139068
#  158386
#  173868
#  193997
#  208875
#  222386
#  235851
#  249606
#  265521
#  280561
#  297523
#
# Disc length: 4151 seconds
#
# Revision: 0
# Processed by: cddbd v1.5.1PL2 Copyright (c) Steve Scherf et al.
# Submitted via: Collectorz.com_Music_Collector 6.11
#
DISCID=1b103514
DTITLE=Various Artist - The Complete Line Dancing
DYEAR=1900
DGENRE=
TTITLE0=5,6,7,8
TTITLE1=Boot Scootin' Boogie
TTITLE2=Macarena
TTITLE3=American Pie
TTITLE4=Hello Mary Lou
TTITLE5=I'm Gonna Be A Country Boy Again
TTITLE6=Rhinestone Cowboy
TTITLE7=Country Roads
TTITLE8=Jolene
TTITLE9=Whisky In A Jar
TTITLE10=Achy Breaky Heart
TTITLE11=Mmm Bop
TTITLE12=Cotton Eye Joe
TTITLE13=Shake, Rattle and Roll
TTITLE14=Rock 'n Roll Waltz
TTITLE15=Swamp Thang
TTITLE16=Where Have All The Cowboys Gone
TTITLE17=I Think About You
TTITLE18=Jambalaya
TTITLE19=Top Of The World
EXTD=
EXTT0=
EXTT1=
EXTT2=
EXTT3=
EXTT4=
EXTT5=
EXTT6=
EXTT7=
EXTT8=
EXTT9=
EXTT10=
EXTT11=
EXTT12=
EXTT13=
EXTT14=
EXTT15=
EXTT16=
EXTT17=
EXTT18=
EXTT19=
PLAYORDER=
